<svg width="360" height="175" viewBox="0 0 360 175" fill="none" xmlns="http://www.w3.org/2000/svg">
<path d="M297.195 88.6693C300.574 89.0707 303.961 88.1006 307.364 88.1048C310.768 88.109 314.632 89.5516 315.657 92.7924C316.263 94.7033 315.723 96.79 314.958 98.6424C313.202 102.883 310.212 106.6 306.453 109.23C314.511 111.781 322.945 113.148 331.183 113.077C336.949 95.0086 342.716 76.9358 347.951 58.9591C334.858 55.3504 321.553 52.5237 308.355 50.5458C303.112 61.7608 299.762 73.8623 297.199 88.6693H297.195Z" fill="#F4664F"/>
<path d="M308.903 75.1001C312.433 73.0595 317.045 71.4788 320.67 69.48C321.783 68.8695 323.167 69.2542 323.769 70.3707C325.755 74.038 327.741 77.747 329.744 81.7112C330.242 82.6938 329.949 83.8898 329.071 84.5588C325.203 87.5194 320.967 90.0325 316.037 91.8139C315.351 90.5385 313.926 89.7022 312.625 89.7607C311.015 86.5869 309.121 82.8026 307.833 77.655C307.582 76.6556 308.013 75.6144 308.903 75.1001Z" fill="white"/>
<path d="M342.026 64.6503C341.114 63.676 339.337 64.4119 339.379 65.7458C339.291 67.8785 339.115 68.4764 338.509 70.9645C338.233 71.943 337.819 73.3814 339.065 73.8498C340.834 74.5397 341.39 72.152 341.8 70.9101C342.23 69.2249 342.431 67.4812 342.477 65.7458C342.477 65.3402 342.31 64.9388 342.021 64.6503H342.026Z" fill="white"/>
<path d="M337.468 77.5798C335.845 77.584 335.849 80.0553 337.468 80.0637C339.09 80.0595 339.086 77.5882 337.468 77.5798Z" fill="white"/>
<path d="M253.038 114.867C252.389 114.202 251.373 114.499 250.884 115.197C250.717 115.352 250.541 115.469 250.294 115.54C249.174 115.82 248.212 114.955 247.898 112.262C248.195 112.07 248.505 111.89 248.789 111.681C250.353 110.543 252.95 107.721 250.733 106.056C247.903 105.04 244.248 105.998 241.5 107.027C238.908 107.921 238.619 110.794 240.744 112.412C241.877 113.362 243.537 113.914 245.051 113.73C244.892 114.742 244.791 115.77 244.469 116.745C244.457 116.782 244.44 116.82 244.423 116.857C244.369 116.962 244.269 117.159 244.173 117.317C244.085 117.393 243.926 117.556 243.842 117.648C243.75 117.702 243.654 117.756 243.583 117.794C243.499 117.819 243.42 117.84 243.357 117.853C243.102 117.823 242.91 117.585 242.078 117.94C241.057 118.492 241.275 120.148 242.404 120.42C244.758 121.085 246.414 119.375 247.175 117.334C247.727 117.848 248.392 118.237 249.211 118.375C250.357 118.589 251.637 118.371 252.532 117.589C253.272 116.949 253.811 115.67 253.046 114.854L253.038 114.867Z" fill="#F4664F"/>
<path d="M222.177 54.3427C221.169 49.2578 219.689 44.2692 217.707 39.4813C216.16 35.7388 214.328 31.9126 211.46 29.0106C210.874 28.2955 210.247 27.6139 209.532 27.0118C208.842 26.4807 208.018 26.1044 207.157 25.9329C202.231 23.9091 199.53 28.3541 203.059 33.9491C205.881 38.553 209.942 42.237 213.199 46.5189C215.093 48.6724 217.59 52.624 219.923 56.4544C219.936 56.5045 219.948 56.5589 219.961 56.6091C219.978 56.6007 219.99 56.5965 220.007 56.5882C220.153 56.8265 220.299 57.0649 220.442 57.3032C221.027 57.8134 222.039 57.6001 222.407 56.9269C222.716 56.0989 222.457 55.2124 222.181 54.3385L222.177 54.3427Z" fill="#F4664F"/>
<path d="M246.067 51.035C246.882 46.6945 247.288 42.2746 247.238 37.8588C247.2 34.409 246.962 30.8003 245.611 27.5972C245.373 26.8445 245.092 26.1086 244.716 25.4061C244.34 24.7663 243.804 24.2101 243.177 23.8004C239.92 20.6391 236.378 23.3027 237.394 28.8433C238.168 33.3804 240.212 37.5829 241.438 42.0028C242.253 44.3069 242.981 48.2208 243.612 51.9926C243.604 52.0386 243.6 52.0804 243.591 52.1264C243.604 52.1264 243.62 52.1264 243.633 52.1264C243.671 52.3606 243.712 52.5948 243.75 52.8289C244.051 53.4185 244.917 53.5691 245.423 53.1551C245.929 52.5989 246.004 51.817 246.063 51.0392L246.067 51.035Z" fill="#F4664F"/>
<path d="M31.1706 130.987C30.2213 128.022 30.56 126.345 30.1461 122.891C29.7321 121.716 27.8838 121.846 27.5995 123.055C27.0182 125.601 27.3402 128.256 27.9089 130.778C28.1013 131.485 28.1849 132.346 28.8958 132.735C30.0332 133.45 31.5678 132.271 31.1706 130.987Z" fill="#F4664F"/>
<path d="M34.9886 114.871C34.9008 113.675 33.1445 113.332 32.5842 114.386C31.5054 116.548 31.2754 119.069 31.5806 121.445C31.6308 122.114 31.7688 122.845 32.4128 123.184C33.5627 123.908 35.1182 122.712 34.7126 121.415C34.3405 119.964 34.7168 117.079 34.9886 114.871Z" fill="#F4664F"/>
<path d="M40.069 107.541C39.6383 106.763 38.4967 106.625 37.8779 107.256C37.2841 107.963 37.3426 109 37.0624 109.853C36.9579 110.225 37.0123 110.644 37.2088 110.978C37.8026 112.074 39.5798 111.844 39.8725 110.631C39.9268 109.619 40.5373 108.507 40.0732 107.545L40.069 107.541Z" fill="#F4664F"/>
<path d="M162.13 158.991C162.13 158.991 162.113 158.979 162.096 158.966C160.988 158.096 159.938 157.143 159.039 156.056C157.53 154.559 155.247 156.846 156.735 158.36C157.814 159.635 162.117 163.808 163.518 161.559C164.208 160.371 163.012 159.556 162.13 158.991Z" fill="#F4664F"/>
<path d="M170.418 158.882C168.862 157.611 168.649 156.992 167.817 156.194C166.361 154.931 164.141 156.904 165.166 158.523C166.249 160.208 171.07 164.728 171.898 160.823C171.693 159.342 170.74 159.363 170.418 158.882Z" fill="#F4664F"/>
<path d="M175.615 158.744C174.511 159.008 174.302 160.626 175.297 161.166C176.113 161.671 177.313 162.148 177.915 161.09C178.697 159.735 176.811 158.539 175.615 158.74V158.744Z" fill="#F4664F"/>
<path d="M104.11 129.812C103.382 126.45 100.288 123.222 96.7881 122.983C94.7433 123.138 94.5468 126.291 96.5288 126.759C98.4398 127.253 100.083 129.026 100.748 131.179C100.94 131.652 100.915 132.229 101.279 132.614C101.823 133.421 103.115 133.479 103.776 132.781C104.537 131.986 104.256 130.786 104.11 129.808V129.812Z" fill="#F4664F"/>
<path d="M104.888 137.477C103.052 137.481 103.056 140.274 104.888 140.287C106.724 140.278 106.719 137.489 104.888 137.477Z" fill="#F4664F"/>
<path d="M153.244 70.6509C152.642 69.9149 152.177 68.8862 151.283 68.4764C149.589 67.6443 147.979 70.0654 149.351 71.345C150.329 72.3946 151.475 74.247 152.955 74.4561C153.754 74.4561 154.419 73.7912 154.423 72.9884C154.352 72.1019 153.704 71.3785 153.244 70.6509Z" fill="#F4664F"/>
<path d="M163.288 71.7799C161.908 69.986 160.106 68.1879 157.923 67.477C156.079 67.1174 155.151 69.8605 156.794 70.7428C159.462 72.1604 160.804 73.5863 162.247 75.6144C162.431 75.928 162.736 76.1663 163.087 76.2583C163.828 76.4591 164.61 76.0158 164.814 75.2757C164.973 73.9919 163.94 72.8085 163.284 71.7757L163.288 71.7799Z" fill="#F4664F"/>
<path d="M169.171 71.7758C167.561 71.7799 167.565 74.2345 169.171 74.2429C170.781 74.2387 170.777 71.7841 169.171 71.7758Z" fill="#F4664F"/>
<path d="M208.387 146.48C208.316 146.48 208.249 146.476 208.178 146.467C189.202 143.996 173.203 127.115 171.756 108.038C170.351 89.5474 182.875 71.6126 200.128 66.6365C187.629 54.029 180.571 36.2531 181.131 18.4897C181.357 11.3978 183.213 6.53875 186.81 3.63673C191.334 -0.0179746 197.464 0.375094 201.805 1.3494C213.931 4.06325 225.167 13.2084 231.85 25.8201C237.332 36.1611 240.096 48.6097 240.309 63.885C240.321 64.7674 239.615 65.4949 238.732 65.5075C237.909 65.5702 237.123 64.8133 237.11 63.931C236.905 49.1784 234.262 37.2023 229.023 27.3254C222.771 15.5333 212.334 6.99037 201.107 4.47723C198.112 3.80818 192.534 3.13076 188.817 6.13314C185.99 8.41629 184.518 12.4933 184.326 18.5985C183.761 36.4246 191.271 54.2716 204.414 66.3313C204.857 66.7411 205.037 67.3599 204.874 67.9412C204.711 68.5224 204.234 68.9615 203.645 69.0786C186.454 72.4824 173.579 89.8527 174.942 107.8C176.28 125.425 191.058 141.019 208.587 143.302C209.465 143.415 210.08 144.218 209.967 145.096C209.863 145.903 209.173 146.488 208.382 146.488L208.387 146.48Z" fill="#F4664F"/>
<path d="M266.226 141.182C265.619 141.182 265.042 140.835 264.771 140.249C264.403 139.446 264.754 138.497 265.557 138.129C280.1 131.455 289.542 114.449 287.523 98.5755C285.503 82.7022 272.101 68.6019 256.353 65.7835C255.592 65.6455 255.04 64.9848 255.036 64.2154C255.019 59.6031 255.375 54.9616 255.717 50.4705C255.972 47.1378 256.236 43.6922 256.34 40.3135C256.633 30.8213 255.508 23.6164 252.794 17.6409C249.441 10.2604 243.206 4.86196 236.52 3.54058C229.992 2.25265 222.114 4.72815 219.697 11.9539C219.417 12.7944 218.518 13.246 217.673 12.9617C216.837 12.6815 216.385 11.7741 216.666 10.9378C219.317 3.01788 227.935 -1.40206 237.143 0.400209C244.941 1.93485 251.883 7.88525 255.709 16.3153C258.632 22.755 259.849 30.4115 259.539 40.4096C259.431 43.8594 259.167 47.3427 258.908 50.7089C258.603 54.7065 258.285 58.8295 258.239 62.8899C274.986 66.5027 288.53 81.1299 290.696 98.1699C292.921 115.653 282.91 133.684 266.895 141.04C266.677 141.14 266.452 141.186 266.226 141.186V141.182Z" fill="#F4664F"/>
<path d="M23.3009 143.498C22.6109 143.498 21.9711 143.047 21.7662 142.348C17.5512 128.031 21.8582 110.899 33.0064 97.6389C41.8002 87.1765 54.575 78.7632 72.054 71.9221C112.047 56.2704 154.657 55.225 195.264 68.8946C196.101 69.179 196.552 70.0864 196.272 70.9227C195.992 71.759 195.076 72.2065 194.244 71.9305C154.356 58.5076 112.507 59.5321 73.2165 74.9078C56.2476 81.5481 43.8952 89.6562 35.4526 99.7004C24.9861 112.149 20.9174 128.144 24.8314 141.449C25.0822 142.298 24.5972 143.189 23.7483 143.436C23.5978 143.482 23.4472 143.503 23.2967 143.503L23.3009 143.498Z" fill="#F4664F"/>
<path d="M19.3996 165.456C15.1009 165.456 10.8064 164.298 7.23535 161.96C5.05256 160.53 3.90262 158.891 3.81481 157.08C3.77718 156.286 4.03225 155.487 4.49641 154.818C1.85783 152.74 0.109925 149.307 0.00538527 145.556C-0.107518 141.487 1.55675 137.13 4.81839 132.952C5.54181 132.024 6.47012 131.05 7.87513 130.857C8.99162 130.707 9.9952 131.125 10.7521 131.815C13.0519 128.231 16.9408 125.63 21.206 125.216C22.1009 125.141 22.8703 125.773 22.9539 126.655C23.0417 127.533 22.3978 128.315 21.5155 128.403C17.2084 128.825 13.3948 132.133 12.1822 136.256C12.1027 136.942 11.9438 137.586 11.8058 138.158C11.6051 138.978 10.8064 139.509 9.97011 139.354C9.14215 139.208 8.56509 138.443 8.65709 137.602C8.72818 136.958 8.84944 136.323 9.01671 135.7C9.04179 135.378 9.02925 135.072 8.96234 134.796C8.84526 134.332 8.4731 134.002 8.30165 134.035C8.10094 134.06 7.77477 134.362 7.33571 134.926C5.38291 137.427 3.08303 141.282 3.20012 145.472C3.29211 148.809 5.17801 151.874 7.74968 153.108C8.44383 153.149 9.09616 153.421 9.61049 153.915C10.1332 154.416 10.2586 155.207 9.90738 155.842C9.55613 156.478 8.82017 156.796 8.12185 156.624C7.86677 156.562 7.61587 156.486 7.36498 156.403C7.18517 156.532 7.00118 156.766 7.00954 156.938C7.05136 157.841 8.10512 158.719 8.98325 159.292C15.4229 163.503 24.5848 163.244 30.7819 158.686C31.4927 158.163 32.4963 158.314 33.019 159.025C33.5417 159.735 33.3912 160.739 32.6803 161.262C28.8876 164.051 24.1415 165.46 19.3996 165.46V165.456Z" fill="#F4664F"/>
<path d="M109.003 174.559C93.6477 174.559 77.9542 173.434 61.3032 172.079C54.5332 171.527 46.86 170.904 39.8851 168.132C31.9902 164.992 26.2238 159.384 24.0703 152.748C23.7985 151.907 24.2585 151.004 25.099 150.732C25.9437 150.461 26.8427 150.921 27.1145 151.761C28.9753 157.49 34.0601 162.37 41.0643 165.155C47.5959 167.747 55.0141 168.354 61.5582 168.885C89.7672 171.185 115.195 172.807 140.762 169.395C147.189 168.538 150.798 166.593 151.805 163.461C153.252 158.949 148.381 154.4 143.246 152.079C133.967 147.889 123.304 146.329 113.213 147.701C112.611 147.776 112.022 147.517 111.679 147.019C111.336 146.522 111.307 145.873 111.595 145.342C115.405 138.393 114.464 128.951 109.358 122.883C104.256 116.824 95.1029 114.29 87.6095 116.857C86.7732 117.138 85.8616 116.698 85.5773 115.862C85.2888 115.026 85.7362 114.118 86.5725 113.83C95.4124 110.802 105.791 113.679 111.808 120.826C117.19 127.224 118.612 136.469 115.639 144.218C125.453 143.402 135.618 145.121 144.567 149.164C151.17 152.146 156.911 158.025 154.854 164.44C153.432 168.872 148.966 171.532 141.188 172.573C130.488 174.003 119.829 174.559 109.003 174.559Z" fill="#F4664F"/>
<path d="M205.706 172.046C188.285 172.046 170.869 170.649 153.553 167.856C152.679 167.714 152.085 166.894 152.228 166.02C152.37 165.146 153.202 164.548 154.063 164.695C189.477 170.411 225.355 170.223 260.706 164.13C264.273 163.516 267.439 162.872 270.102 161.207C272.912 159.455 274.581 156.641 274.355 154.04C274.121 151.314 272.034 148.801 267.79 146.133C258.264 140.136 247.304 136.482 236.085 135.557C235.203 135.482 234.55 134.713 234.622 133.83C234.693 132.948 235.462 132.292 236.349 132.367C248.078 133.333 259.54 137.155 269.496 143.423C272.745 145.468 277.111 148.763 277.541 153.768C277.868 157.553 275.614 161.538 271.796 163.925C268.643 165.895 265.005 166.639 261.246 167.287C242.83 170.461 224.264 172.046 205.702 172.046H205.706Z" fill="#F4664F"/>
<path d="M222.804 97.8353C219.961 97.0116 216.62 98.7595 215.679 101.565C214.738 104.371 216.348 107.783 219.112 108.837C221.876 109.891 225.351 108.427 226.522 105.705C227.693 102.983 226.564 98.9226 222.804 97.8353Z" fill="#F4664F"/>
<path d="M263.537 88.0044C260.694 87.1806 257.353 88.9285 256.412 91.7344C255.471 94.5402 257.081 97.9524 259.845 99.0062C262.613 100.064 266.084 98.5964 267.255 95.8742C268.426 93.1519 267.297 89.0916 263.537 88.0044Z" fill="#F4664F"/>
<path d="M287.891 116.807C287.117 116.807 286.44 116.247 286.315 115.461C286.172 114.587 286.766 113.767 287.64 113.625C292.257 112.881 298.232 111.672 303.497 108.937C308.711 106.228 312.617 102.259 314.503 97.7642C315.326 95.7989 315.765 93.0014 314.285 91.5797C313.181 90.5176 311.212 90.4005 309.455 90.3754C302.196 90.2708 294.849 90.7559 287.736 91.2284C286.841 91.2661 286.093 90.6179 286.034 89.7356C285.976 88.8533 286.645 88.0922 287.527 88.0337C294.703 87.5612 302.117 87.0678 309.501 87.1765C311.212 87.2016 314.402 87.2434 316.506 89.2756C319.144 91.818 318.726 95.9662 317.455 99.002C315.28 104.187 310.848 108.724 304.973 111.777C299.307 114.721 293.005 116 288.15 116.782C288.062 116.795 287.979 116.803 287.895 116.803L287.891 116.807Z" fill="#F4664F"/>
<path d="M325.721 114.52C318.818 114.52 311.981 113.52 305.319 111.53C304.475 111.275 303.994 110.384 304.245 109.54C304.496 108.691 305.386 108.21 306.235 108.465C314.03 110.794 322.083 111.701 330.192 111.175L346.123 59.8958L309.79 52.072C304.864 63.8432 301.318 76.1789 299.239 88.7696C299.093 89.6394 298.273 90.2416 297.4 90.0868C296.526 89.9447 295.936 89.1209 296.082 88.2469C298.274 74.9704 302.066 61.9699 307.36 49.5965C307.661 48.8899 308.422 48.4968 309.167 48.664L348.507 57.1359C348.946 57.2279 349.326 57.5039 349.552 57.8928C349.778 58.2817 349.832 58.7458 349.699 59.1766L332.922 113.165C332.73 113.788 332.174 114.231 331.521 114.286C329.581 114.44 327.645 114.52 325.713 114.52H325.721Z" fill="#F4664F"/>
<path d="M339.884 57.8803C339.817 57.8803 339.755 57.8803 339.688 57.8677C338.81 57.759 338.187 56.9645 338.291 56.0864C339.324 47.5978 339.558 38.9628 338.989 30.4198C338.944 29.7424 338.872 29.5166 338.818 29.4455C338.73 29.4037 338.396 29.3786 337.844 29.3995L317.27 30.2358C315.41 36.8302 314.105 43.6169 313.381 50.4287C313.289 51.311 312.487 51.9592 311.621 51.8504C310.743 51.7584 310.107 50.9681 310.199 50.09C310.981 42.7095 312.436 35.3583 314.515 28.237C314.707 27.5763 315.301 27.1163 315.987 27.0871L337.714 26.2006C338.471 26.1671 339.88 26.1128 340.946 27.0578C342.034 28.0238 342.13 29.4455 342.18 30.2065C342.765 38.9461 342.523 47.7818 341.469 56.4711C341.369 57.2823 340.679 57.8761 339.884 57.8761V57.8803Z" fill="#F4664F"/>
<path d="M345.835 59.1891C345.58 59.1891 345.317 59.1264 345.074 58.9967C344.296 58.5744 344.008 57.6043 344.43 56.8265L356.21 35.0697C356.912 33.7692 356.812 33.4012 356.762 33.3218C356.624 33.0876 355.829 32.8576 355.528 32.774L335.13 26.9323C333.926 26.5894 332.563 26.2005 331.446 26.4514C330.681 26.6271 329.983 27.3337 330.071 27.8523C330.213 28.7262 329.623 29.5458 328.749 29.688C327.871 29.8302 327.056 29.2364 326.913 28.3666C326.508 25.8869 328.582 23.8212 330.735 23.332C332.659 22.8929 334.52 23.4281 336.013 23.8588L356.41 29.7005C357.272 29.9472 358.719 30.3612 359.509 31.6826C360.651 33.5894 359.509 35.6969 359.024 36.596L347.244 58.3528C346.956 58.888 346.404 59.1891 345.835 59.1891Z" fill="#F4664F"/>
<path d="M335.159 56.8893C335.13 56.8893 335.105 56.8893 335.08 56.8893C334.197 56.8474 333.516 56.0948 333.562 55.2124L334.281 40.7609C333.257 40.4138 332.374 39.6569 331.927 38.645C331.735 38.2059 331.63 37.7418 331.613 37.2734C329.334 37.5745 327.03 37.6623 324.73 37.5243C324.571 38.6032 324.099 39.6318 323.359 40.4514C322.522 41.3756 321.377 41.9861 320.16 42.1993L319.386 51.6079C319.315 52.4902 318.537 53.1467 317.659 53.0715C316.777 52.9962 316.125 52.2268 316.196 51.3445L317.086 40.51C317.124 40.0709 317.337 39.6653 317.68 39.3893C318.023 39.1133 318.466 38.9921 318.901 39.0548C319.654 39.1593 320.469 38.8666 320.979 38.3021C321.49 37.7376 321.703 36.8971 321.523 36.1611C321.398 35.6552 321.527 35.1157 321.874 34.7268C322.217 34.3338 322.732 34.1414 323.25 34.1916C326.779 34.5763 330.325 34.3965 333.792 33.648C334.528 33.4849 335.28 33.8654 335.59 34.5554C335.899 35.2454 335.686 36.0566 335.076 36.504C334.841 36.6755 334.733 37.0894 334.85 37.3529C334.967 37.6205 335.356 37.817 335.632 37.7627C336.113 37.6665 336.619 37.7961 336.991 38.1181C337.363 38.4401 337.568 38.9168 337.543 39.4102L336.748 55.3713C336.706 56.2244 336 56.8934 335.151 56.8934L335.159 56.8893Z" fill="#F4664F"/>
<path d="M342.042 57.8719C341.846 57.8719 341.641 57.8343 341.444 57.7548C340.625 57.4245 340.228 56.492 340.558 55.6724C342.465 50.9263 344.639 46.2345 347.027 41.6975C346.124 41.041 345.463 40.0458 345.283 38.9335C345.162 38.1892 345.262 37.4281 345.534 36.734L340.851 35.5757C339.993 35.3624 339.471 34.4968 339.68 33.6396C339.893 32.7824 340.759 32.2597 341.616 32.4688L348.817 34.2459C349.486 34.409 349.971 34.9819 350.029 35.6677C350.088 36.3535 349.699 36.9974 349.072 37.2692C348.666 37.4449 348.369 37.9801 348.44 38.415C348.511 38.854 348.959 39.268 349.398 39.3057C349.937 39.3517 350.414 39.6653 350.673 40.1378C350.928 40.6145 350.928 41.1874 350.673 41.6599C348.014 46.5691 345.609 51.6873 343.527 56.86C343.276 57.483 342.678 57.8635 342.042 57.8635V57.8719Z" fill="#F4664F"/>
<path d="M330.627 55.7979C330.56 55.7979 330.497 55.7979 330.43 55.7854C329.552 55.6767 328.929 54.8822 329.034 54.004C329.209 52.5572 328.172 51.0016 326.772 50.6044C325.367 50.2071 323.669 50.9891 323.063 52.3188C322.695 53.1217 321.737 53.4688 320.942 53.105C320.14 52.737 319.784 51.7878 320.152 50.9849C321.423 48.2167 324.71 46.6988 327.641 47.5267C330.573 48.3547 332.58 51.3696 332.212 54.3887C332.111 55.2 331.421 55.7979 330.627 55.7979Z" fill="#F4664F"/>
</svg>
